HIERARCHY
ROOT Hips
{
	OFFSET -0.001795 -0.223333 0.028219
	CHANNELS 6 Xposition Yposition Zposition Zrotation Yrotation Xrotation 
	JOINT LeftUpLeg
	{
		OFFSET 0.069520 -0.091406 -0.006815
		CHANNELS 3 Zrotation Yrotation Xrotation
		JOINT LeftLeg
		{
			OFFSET 0.034277 -0.375199 -0.004496
			CHANNELS 3 Zrotation Yrotation Xrotation
			JOINT LeftFoot
			{
				OFFSET -0.013596 -0.397961 -0.043693
				CHANNELS 3 Zrotation Yrotation Xrotation
				JOINT LeftToe
				{
					OFFSET 0.026358 -0.055791 0.119288
					CHANNELS 3 Zrotation Yrotation Xrotation
					End Site
					{
						OFFSET 0.000000 0.000000 0.000000
					}
				}
			}
		}
	}
	JOINT RightUpLeg
	{
		OFFSET -0.067670 -0.090522 -0.004320
		CHANNELS 3 Zrotation Yrotation Xrotation
		JOINT RightLeg
		{
			OFFSET -0.038290 -0.382569 -0.008850
			CHANNELS 3 Zrotation Yrotation Xrotation
			JOINT RightFoot
			{
				OFFSET 0.015774 -0.398415 -0.042312
				CHANNELS 3 Zrotation Yrotation Xrotation
				JOINT RightToe
				{
					OFFSET -0.025372 -0.048144 0.123348
					CHANNELS 3 Zrotation Yrotation Xrotation
					End Site
					{
						OFFSET 0.000000 0.000000 0.000000
					}
				}
			}
		}
	}
	JOINT Spine
	{
		OFFSET -0.002533 0.108963 -0.026696
		CHANNELS 3 Zrotation Yrotation Xrotation
		JOINT Spine1
		{
			OFFSET 0.005487 0.135180 0.001092
			CHANNELS 3 Zrotation Yrotation Xrotation
			JOINT Spine2
			{
				OFFSET 0.001457 0.052922 0.025425
				CHANNELS 3 Zrotation Yrotation Xrotation
				JOINT Neck
				{
					OFFSET -0.002778 0.213870 -0.042857
					CHANNELS 3 Zrotation Yrotation Xrotation
					JOINT Head
					{
						OFFSET 0.005152 0.064970 0.051349
						CHANNELS 3 Zrotation Yrotation Xrotation
						End Site
						{
							OFFSET 0.000000 0.000000 0.000000
						}
					}
				}
				JOINT LeftShoulder
				{
					OFFSET 0.078845 0.121749 -0.034090
					CHANNELS 3 Zrotation Yrotation Xrotation
					JOINT LeftArm
					{
						OFFSET 0.090977 0.030469 -0.008868
						CHANNELS 3 Zrotation Yrotation Xrotation
						JOINT LeftForeArm
						{
							OFFSET 0.259612 -0.012772 -0.027456
							CHANNELS 3 Zrotation Yrotation Xrotation
							JOINT LeftHand
							{
								OFFSET 0.249234 0.008986 -0.001171
								CHANNELS 3 Zrotation Yrotation Xrotation
								End Site
								{
									OFFSET 0.000000 0.000000 0.000000
								}
							}
						}
					}
				}
				JOINT RightShoulder
				{
					OFFSET -0.081759 0.118833 -0.038615
					CHANNELS 3 Zrotation Yrotation Xrotation
					JOINT RightArm
					{
						OFFSET -0.096012 0.032551 -0.009143
						CHANNELS 3 Zrotation Yrotation Xrotation
						JOINT RightForeArm
						{
							OFFSET -0.253742 -0.013329 -0.021401
							CHANNELS 3 Zrotation Yrotation Xrotation
							JOINT RightHand
							{
								OFFSET -0.255298 0.007772 -0.005559
								CHANNELS 3 Zrotation Yrotation Xrotation
								End Site
								{
									OFFSET 0.000000 0.000000 0.000000
								}
							}
						}
					}
				}
			}
		}
	}
}
MOTION
Frames: 18
Frame Time: 0.050000
0.000000 0.959764 0.000000 -0.814402 24.403449 5.016021 0.248657 -0.544366 -6.494221 -0.563602 0.035374 -0.650328 -1.885972 2.800055 9.092299 0.000000 0.000000 0.000000 -1.073921 0.800532 -11.261854 -2.327177 0.506164 7.091435 -1.599541 -4.414226 8.297521 0.000000 0.000000 0.000000 0.666361 -0.185097 3.385808 2.290958 -0.335935 -6.933456 -3.953196 -1.079926 9.519371 6.661091 -1.303846 -17.675081 0.000000 0.000000 0.000000 -11.949059 -2.342239 -2.114243 -53.912404 -9.170111 -2.883200 -16.097967 -31.471641 4.585348 0.000000 0.000000 0.000000 12.576209 -2.898367 -0.378989 59.679846 6.462031 -2.356839 9.622389 32.761783 5.057041 0.000000 0.000000 0.000000 
0.001380 0.957806 -0.001461 -1.096812 25.252707 5.278058 0.030187 -0.559098 -6.683137 -0.311571 0.042484 -1.461382 -1.035216 3.804317 8.299944 0.000000 0.000000 0.000000 -1.268946 0.792639 -12.058766 -2.085109 0.447999 7.777011 -1.112331 -3.296993 8.381684 0.000000 0.000000 0.000000 0.767648 -0.209248 3.681845 1.782995 -0.060437 -7.592050 -3.946775 -1.283147 10.192805 7.433112 -1.459910 -19.145712 0.000000 0.000000 0.000000 -9.803346 -1.492013 -2.003982 -56.498452 -9.605514 -3.198400 -15.789417 -33.861111 4.745519 0.000000 0.000000 0.000000 12.713154 -4.279939 -1.001856 59.849723 3.834010 -3.687105 10.590829 33.270283 5.538592 0.000000 0.000000 0.000000 
0.002184 0.958013 -0.002112 -1.072810 24.347085 5.537874 0.012468 -0.651488 -7.545515 -0.273216 -0.001521 0.030644 -1.367506 3.715884 9.179865 0.000000 0.000000 0.000000 -1.721872 0.790645 -13.294173 -1.507373 0.330920 9.012481 -1.092900 -3.295224 7.448210 0.000000 0.000000 0.000000 0.305255 -0.219108 4.304342 1.794995 0.017115 -8.783479 -3.710681 -1.030762 11.211681 7.380337 -1.508675 -18.978080 0.000000 0.000000 0.000000 -9.684213 -0.903028 -2.162937 -55.865258 -9.958976 -3.091089 -18.726864 -33.716134 5.634001 0.000000 0.000000 0.000000 12.531232 -5.371573 -1.588141 60.097133 1.998672 -4.647434 10.872813 33.581920 5.705882 0.000000 0.000000 0.000000 
0.002923 0.957334 -0.000962 -1.144930 23.715407 6.323591 -0.714847 -0.823829 -9.005802 0.956956 -0.118487 0.942838 -0.342746 4.916562 8.361100 0.000000 0.000000 0.000000 -1.988295 0.812103 -15.144551 -0.915005 0.189986 10.210451 -1.054250 -3.218847 6.917784 0.000000 0.000000 0.000000 -0.050786 -0.165703 3.689489 2.160796 -0.224012 -7.781921 -3.459196 -1.622378 10.437128 8.333237 -2.190216 -18.989865 0.000000 0.000000 0.000000 -8.888611 0.697066 -2.485252 -56.953268 -9.120796 -3.564813 -21.485043 -35.696549 6.908707 0.000000 0.000000 0.000000 10.708124 -5.354994 -1.793178 61.247291 0.597666 -5.132370 11.904196 34.421662 6.102223 0.000000 0.000000 0.000000 
0.002943 0.957342 0.002287 -1.060792 22.116776 6.108109 -0.595509 -0.788683 -8.685963 0.227127 -0.082472 1.320214 0.387953 5.827206 8.058467 0.000000 0.000000 0.000000 -2.290375 0.821559 -15.807909 -0.623360 0.126194 11.743438 -1.434854 -4.200355 6.984100 0.000000 0.000000 0.000000 -0.425294 -0.191639 4.629799 2.691265 -0.485938 -7.506958 -4.070955 -1.288702 10.202087 9.000549 -2.738825 -18.611614 0.000000 0.000000 0.000000 -8.775962 0.877039 -2.456549 -56.275594 -8.039478 -3.954440 -24.452243 -38.696001 8.587190 0.000000 0.000000 0.000000 10.393048 -6.397574 -2.393194 61.734472 -1.820514 -6.309787 14.241531 35.820455 7.121874 0.000000 0.000000 0.000000 
0.002271 0.956633 0.007748 -1.262336 19.254166 5.866149 -0.520632 -0.728622 -8.098646 0.228090 -0.088929 1.518074 2.502920 8.817621 7.440779 0.000000 0.000000 0.000000 -2.041482 0.957548 -16.609965 -0.930445 0.247963 13.479890 -1.731989 -5.074413 6.705158 0.000000 0.000000 0.000000 -0.481003 -0.174549 4.424355 2.472907 -0.436382 -7.606759 -3.508686 -2.339487 10.846650 9.681961 -3.394473 -19.138989 0.000000 0.000000 0.000000 -8.633903 0.984130 -2.135047 -56.383082 -6.929468 -4.456801 -27.918882 -41.646982 11.124485 0.000000 0.000000 0.000000 9.477750 -6.109522 -2.522514 61.833048 -3.194876 -7.290505 16.940286 36.783193 8.008838 0.000000 0.000000 0.000000 
0.000569 0.954783 0.014817 -1.291211 15.431541 5.419259 -0.254640 -0.669244 -7.491197 -0.240808 -0.081227 2.410256 4.477364 11.666167 6.957288 0.000000 0.000000 0.000000 -1.984508 1.102714 -17.468360 -0.761926 0.299773 15.600639 -2.370935 -6.879772 7.370954 0.000000 0.000000 0.000000 -0.570397 -0.176340 4.663895 2.616978 -0.559148 -7.583504 -3.432031 -2.584063 11.093247 9.959103 -3.899185 -18.930815 0.000000 0.000000 0.000000 -8.497518 0.861354 -1.777460 -56.613354 -5.070334 -5.274262 -34.357978 -46.294226 15.887277 0.000000 0.000000 0.000000 8.898681 -5.582514 -2.490191 62.156684 -4.753390 -8.377828 21.174905 39.923058 10.125638 0.000000 0.000000 0.000000 
-0.002418 0.952932 0.023189 -1.467522 10.629526 4.888274 0.326278 -0.570841 -6.494731 -0.556429 -0.073554 3.329025 6.647943 14.861775 6.187361 0.000000 0.000000 0.000000 -1.916567 1.331057 -19.095488 -0.338261 0.361763 19.026939 -2.372765 -7.183318 6.319856 0.000000 0.000000 0.000000 -0.511209 -0.173878 4.652107 2.616579 -0.651821 -7.461551 -2.966526 -3.298904 11.546568 10.227277 -4.483542 -18.941857 0.000000 0.000000 0.000000 -7.503542 0.243849 -0.992734 -57.857273 -3.918620 -5.860380 -43.330910 -50.262297 23.050736 0.000000 0.000000 0.000000 7.686945 -4.835070 -2.381802 63.057244 -5.896308 -9.503682 26.214906 42.460052 12.393290 0.000000 0.000000 0.000000 
-0.007306 0.950880 0.032568 -1.760692 5.126086 4.799828 1.337020 -0.484488 -5.654774 -1.563947 0.052123 4.079211 8.889202 18.575643 6.808905 0.000000 0.000000 0.000000 -1.895344 1.613542 -20.604400 0.193208 0.521826 22.039292 -2.193415 -7.429861 7.025776 0.000000 0.000000 0.000000 -0.000686 -0.199997 4.667451 2.937070 -0.886659 -7.266802 -2.769200 -3.116142 11.157462 10.389233 -5.011753 -18.261436 0.000000 0.000000 0.000000 -7.150205 0.169205 -0.646204 -58.405167 -3.594164 -5.841167 -57.346528 -52.503032 33.445474 0.000000 0.000000 0.000000 6.927767 -4.800459 -2.527380 63.082383 -7.313019 -10.572967 33.283405 44.761231 15.639225 0.000000 0.000000 0.000000 
-0.014889 0.949663 0.042872 -2.058208 -0.772939 4.691986 1.848141 -0.356670 -4.205743 -2.103332 0.170188 4.074997 11.521724 22.894443 7.539676 0.000000 0.000000 0.000000 -2.167484 1.936012 -22.398966 0.811283 0.808553 25.229367 -2.318809 -8.281421 7.222824 0.000000 0.000000 0.000000 0.692462 -0.219466 4.277923 2.536131 -0.849769 -6.790639 -2.296564 -3.617444 11.490928 9.748015 -5.140534 -17.778027 0.000000 0.000000 0.000000 -6.374582 -0.452783 -0.002887 -58.865950 -3.469778 -5.636614 -74.362833 -54.814039 48.654720 0.000000 0.000000 0.000000 6.232334 -4.452018 -2.564499 63.276049 -8.405367 -11.748358 40.886155 46.866255 19.102052 0.000000 0.000000 0.000000 
-0.025762 0.948116 0.053841 -2.397331 -6.621893 5.058012 2.677015 -0.240471 -2.963913 -2.590373 0.298289 3.701321 13.489887 25.835113 9.967666 0.000000 0.000000 0.000000 -2.304417 2.308276 -23.838048 1.586682 1.067786 26.490597 -2.448496 -9.243664 7.733574 0.000000 0.000000 0.000000 1.505510 -0.249744 3.963193 2.710515 -1.025186 -6.350335 -2.131520 -3.847632 11.339988 8.904827 -4.987346 -17.680645 0.000000 0.000000 0.000000 -6.436684 -0.379098 0.243046 -58.925367 -4.608715 -4.721636 -87.760496 -56.397047 62.960320 0.000000 0.000000 0.000000 5.373322 -4.597043 -2.690312 63.715286 -9.590133 -13.000843 48.787678 48.284025 22.635600 0.000000 0.000000 0.000000 
-0.040942 0.947574 0.065093 -2.634675 -11.980848 5.584545 2.995180 -0.105093 -1.372828 -2.103645 0.268240 3.109026 15.475948 28.550738 12.137740 0.000000 0.000000 0.000000 -2.448243 2.766228 -25.674684 2.845928 1.214012 28.168003 -3.834315 -12.737520 8.373325 0.000000 0.000000 0.000000 2.415102 -0.299806 3.935827 2.585902 -1.064678 -5.630149 -1.863960 -4.404073 11.304284 7.566778 -4.520510 -17.878310 0.000000 0.000000 0.000000 -5.965833 -0.977429 0.756231 -59.706800 -6.631712 -3.293187 -98.667405 -58.575226 77.640713 0.000000 0.000000 0.000000 5.093941 -4.983277 -2.995916 63.937111 -10.618593 -14.146408 58.014763 49.669287 27.020326 0.000000 0.000000 0.000000 
-0.061002 0.945894 0.076975 -3.061917 -16.488818 6.376892 3.558384 0.018073 -0.059250 -1.333523 0.174463 2.714464 16.511099 29.763438 13.691523 0.000000 0.000000 0.000000 -2.163059 3.239954 -26.943999 3.334066 1.434535 28.088863 -4.697892 -14.851761 8.312868 0.000000 0.000000 0.000000 3.244264 -0.355268 4.058403 2.412227 -1.043724 -5.349881 -2.008049 -5.076997 11.401038 6.910634 -4.367295 -18.615104 0.000000 0.000000 0.000000 -5.680614 -0.971357 0.958502 -60.465033 -8.497433 -1.868844 -107.707056 -59.713592 90.347542 0.000000 0.000000 0.000000 5.124452 -4.972170 -3.211741 64.647331 -12.786857 -16.032667 67.313642 50.902395 31.927931 0.000000 0.000000 0.000000 
-0.086992 0.943730 0.089733 -3.441458 -21.747497 7.271951 4.434769 0.121190 0.551935 -0.801055 0.128536 4.769870 17.758569 31.065015 15.482803 0.000000 0.000000 0.000000 -0.515944 3.974903 -27.879999 3.386399 1.955305 28.746572 -5.025836 -15.733034 7.620343 0.000000 0.000000 0.000000 3.749710 -0.410325 4.524549 1.702878 -0.799924 -4.693746 -1.218054 -5.420273 10.574304 5.014115 -3.570720 -18.424752 0.000000 0.000000 0.000000 -5.541142 -0.859721 1.120842 -60.745087 -9.309078 -0.884253 -115.829111 -60.633034 102.657981 0.000000 0.000000 0.000000 4.590883 -5.137834 -3.315230 64.700998 -14.723543 -17.607982 75.857147 50.161642 35.033418 0.000000 0.000000 0.000000 
-0.118930 0.940363 0.104430 -3.493615 -25.529599 8.053164 5.702669 0.233612 0.946842 -1.192748 0.316618 7.087042 17.713348 30.511035 16.539219 0.000000 0.000000 0.000000 0.448886 4.242290 -27.481036 4.581646 1.881207 28.387667 -5.544204 -16.709893 6.784342 0.000000 0.000000 0.000000 4.321224 -0.427272 4.287088 0.768997 -0.443155 -4.491528 -1.322589 -6.207869 10.544082 4.628744 -3.631299 -18.305235 0.000000 0.000000 0.000000 -4.516697 -0.894990 1.175529 -60.615701 -9.832101 -0.046687 -119.316730 -63.685903 111.684820 0.000000 0.000000 0.000000 4.386876 -5.090347 -3.428903 65.400215 -16.238709 -19.190789 82.432015 49.689451 37.497268 0.000000 0.000000 0.000000 
-0.155440 0.934677 0.120765 -3.293405 -29.196521 8.626890 6.838295 0.329138 0.427974 -1.861123 0.896023 12.228098 16.195607 28.050313 16.126285 0.000000 0.000000 0.000000 1.194654 4.478010 -27.240663 6.938926 1.889990 30.905650 -6.523726 -18.340155 5.627195 0.000000 0.000000 0.000000 3.704684 -0.397017 4.418248 1.005584 -0.522742 -3.787860 -1.098022 -7.751230 9.964245 2.994324 -2.983173 -18.951143 0.000000 0.000000 0.000000 -4.984236 1.051755 0.580969 -59.764106 -7.906367 -0.641475 -123.124330 -63.817590 118.584593 0.000000 0.000000 0.000000 5.144791 -2.943546 -3.257738 63.834386 -15.162505 -18.056430 86.255219 51.213895 39.662510 0.000000 0.000000 0.000000 
-0.194954 0.929234 0.138806 -3.905985 -34.611423 9.068260 8.735339 0.581746 -2.422711 -2.197235 3.021186 23.846561 15.329322 24.790921 20.143403 0.000000 0.000000 0.000000 3.452839 4.808562 -26.240203 7.922770 2.701607 33.889154 -6.480194 -16.824492 2.045279 0.000000 0.000000 0.000000 4.182025 -0.415288 4.515627 0.399360 -0.270967 -3.454105 -0.493511 -5.138147 9.524190 3.308982 -3.090030 -20.683985 0.000000 0.000000 0.000000 -5.434778 0.208870 1.087205 -58.766129 -5.111754 -2.259245 -120.628703 -66.646170 118.023961 0.000000 0.000000 0.000000 4.793123 -2.738024 -3.056756 63.669649 -13.170289 -16.971407 90.866069 52.830071 44.265643 0.000000 0.000000 0.000000 
-0.233376 0.923178 0.158733 -4.117670 -39.540351 8.321174 8.942836 0.947546 -8.559060 1.887820 6.585175 42.256230 8.836676 15.110715 20.014284 0.000000 0.000000 0.000000 5.707593 4.391525 -23.187334 7.570361 3.804934 35.545961 -7.064007 -16.079940 -1.003681 0.000000 0.000000 0.000000 4.260717 -0.491011 7.133973 -0.595449 -0.007822 -4.919231 0.771930 -4.335750 10.359846 1.708952 -2.461788 -22.574117 0.000000 0.000000 0.000000 -5.856000 3.040808 -0.001564 -59.138109 -1.972364 -3.569441 -114.690443 -69.660424 115.106517 0.000000 0.000000 0.000000 2.471663 -0.799063 -1.636879 63.658950 -6.918992 -14.214804 92.862686 54.171519 45.443021 0.000000 0.000000 0.000000 
